<?xml version="1.0" encoding="utf-8"?>
<!-- Generator: Adobe Illustrator 19.2.1, SVG Export Plug-In . SVG Version: 6.00 Build 0)  -->
<svg version="1.1" id="layer" xmlns="http://www.w3.org/2000/svg" xmlns:xlink="http://www.w3.org/1999/xlink" x="0px" y="0px"
	 viewBox="0 0 652 652" style="enable-background:new 0 0 652 652;" xml:space="preserve">
<style type="text/css">
	.st0{fill:#2E3D49;}
	.st1{fill:#02B3E4;}
</style>
<g>
	<path id="wordmark" class="st0" d="M223.6,333.6c0,8.7-7.1,15.1-17,15.1c-9.8,0-17-6.4-17-15.1v-32.1h-6.8V334
		c0,11.4,9.8,21.1,23.7,21.1s23.7-10,23.7-21.1v-32.4h-6.8V333.6z M279.2,301.5h-18.3v53.5h18.3c15.3,0,25.8-10.4,25.8-26.8
		C305,312.2,294.4,301.5,279.2,301.5z M278.5,348.4h-10.9v-40.1h10.9c11.5,0,19.7,7.7,19.7,20.1C298.2,341.7,289.7,348,278.5,348.4z
		 M427.1,349.4c-12.2,0-20.4-9-20.4-21.1s8.5-20.7,20.4-20.7c9.5,0,15.3,5.4,15.3,5.4l2.7-4.7c0,0-6.1-6.4-18.7-6.4
		c-16.3,0-26.5,12-26.5,26.4c0,14.7,10.5,27.1,27.1,27.1c12.9,0,19.3-8.7,19.3-8.7l-3.7-4C442.3,342.3,437.2,349.4,427.1,349.4z
		 M477.9,301.5h6.8v53.5h-6.8V301.5z M515.3,308.2h17v46.8h6.8v-46.8h17v-6.7h-40.7 M619.7,301.5L603.4,326l-16.6-24.4h-7.1
		l20.4,29.8v23.8h6.8v-23.8l20-29.8 M348.7,301.5l-21,53.5h6.8l5.8-15.4l22-4.7l7.5,20.1h6.8l-20.7-53.5
		C355.8,301.5,348.7,301.5,348.7,301.5z M342.3,333.3l10.2-24.8h0.3l8.5,21.1C361.3,329.6,342.3,333.3,342.3,333.3z"/>
	<path id="mark" class="st1" d="M125.9,276.5l3.4,1.7v44.4c0,19-9.9,29.7-20.5,34.5l0,0l-26,15c-0.2,0.1-0.4,0.2-0.6,0.3l-0.3,0.2
		l0,0c-5.6,3.1-11.8,4.7-17.5,4.7c-17.1,0-37.6-13.7-37.6-41v-41l6.8,3.4v37.6c0,27.3,20.5,34.2,30.7,34.2c6.3,0,16.6-2.6,23.5-11.1
		c-12.7-3-26.9-13.9-26.9-36.7v-40.3l-27.3,16.4l-6.8-3.4L61,274.8l3.4,1.7l3.4,1.7v44.4c0,23.7,15.4,29.4,24,30.5
		c2.1-4.5,3.4-10,3.4-16.8v-44.4l6.8,3.4v41c0,6.3-1.1,11.9-3,16.8c8.6-1.2,23.5-7.2,23.5-30.4v-40.1L102,295.3l-6.8-3.4l27.3-17.1
		L125.9,276.5z"/>
</g>
</svg>
